#!OML:ASF H:\MichaelJackson\Top Level 1\Subject 1\Session 1\male.ASF
:FULLY-SPECIFIED
:DEGREES
173
root 4.68005 24.3387 -7.93108 0.268683 -0.840783 -5.44015
lowerback 20.1024 1.84747 7.93966
upperback 3.33118 4.65964 6.49721
thorax -7.54635 2.11288 1.35013
lowerneck -10.171 -7.01861 -0.831201
upperneck 4.43859 -9.38221 1.66865
head 3.35271 -4.59638 0.116196
rclavicle -3.1408e-014 -6.52014e-014
rhumerus 20.7112 -3.58528 -2.14087
rradius 25.0273
rwrist 3.78935
rhand -35.8228 -30.9092
rfingers 7.12502
rthumb -8.93876 -60.6998
lclavicle -3.1408e-014 -6.52014e-014
lhumerus -7.98782 1.2026 18.9228
lradius 120.336
lwrist 52.2838
lhand -26.5769 11.4149
lfingers 7.12502
lthumb -0.011438 41.3946
rfemur -85.5383 -40.3699 7.78854
rtibia 100.321
rfoot 0.572324 2.5897
rtoes 15.7019
lfemur -29.6781 24.0803 5.83348
ltibia 102.258
lfoot 7.30202 -9.73236
ltoes 25.375
174
root 4.64528 24.2148 -7.79638 0.282708 -0.866429 -5.52575
lowerback 19.3323 2.01924 8.11676
upperback 3.2294 4.83451 6.47767
thorax -7.22078 2.20418 1.21368
lowerneck -10.1323 -7.0934 -0.816636
upperneck 4.60291 -9.47306 1.46782
head 3.39109 -4.64835 0.0412315
rclavicle 2.26615e-014 4.29375e-014
rhumerus 19.8618 -3.39488 -0.784492
rradius 24.7146
rwrist 3.93534
rhand -35.6737 -31.4164
rfingers 7.12502
rthumb -8.79489 -61.2131
lclavicle 2.26615e-014 4.29375e-014
lhumerus -8.99628 1.27161 17.9141
lradius 119.169
lwrist 51.2833
lhand -25.7245 11.7179
lfingers 7.12502
lthumb 0.81184 41.6961
rfemur -86.2636 -40.7804 9.73614
rtibia 104.6
rfoot 2.62274 1.88804
rtoes 20.5596
lfemur -29.3548 21.1103 3.58274
ltibia 98.6249
lfoot 7.45055 -10.4875
ltoes 23.2313
175
root 4.61187 24.0825 -7.6598 0.326788 -0.882773 -5.55603
lowerback 18.5 2.19156 8.22051
upperback 3.12588 4.98345 6.43065
thorax -6.86487 2.28651 1.10179
lowerneck -10.1315 -7.17171 -0.802452
upperneck 4.86209 -9.56824 1.24739
head 3.46887 -4.70226 -0.0444452
rclavicle 2.22639e-014 6.36111e-014
rhumerus 18.9045 -2.90701 0.686773
rradius 24.514
rwrist 3.78657
rhand -35.5056 -31.8702
rfingers 7.12502
rthumb -8.63273 -61.6737
lclavicle 2.22639e-014 6.36111e-014
lhumerus -10.0198 1.35809 16.8158
lradius 117.782
lwrist 50.1428
lhand -24.6976 12.0644
lfingers 7.12502
lthumb 1.80364 42.0366
rfemur -86.3994 -41.0113 11.5134
rtibia 108.178
rfoot 4.61597 0.330539
rtoes 26.3222
lfemur -28.9724 18.1272 1.40419
ltibia 94.989
lfoot 7.94919 -11.3282
ltoes 21.5736
176
root 4.57883 23.941 -7.52115 0.362345 -0.879997 -5.52401
lowerback 17.6459 2.36409 8.23061
upperback 3.02723 5.10924 6.36066
thorax -6.49587 2.36083 1.02798
lowerneck -10.1468 -7.25906 -0.791763
upperneck 5.19771 -9.67591 1.03193
head 3.57736 -4.76159 -0.131935
rclavicle -1.27222e-014 -4.29375e-014
rhumerus 17.844 -2.21192 2.20261
rradius 24.4253
rwrist 3.331
rhand -35.3501 -32.1896
rfingers 7.12502
rthumb -8.48261 -61.9992
lclavicle -1.27222e-014 -4.29375e-014
lhumerus -11.0529 1.42754 15.6515
lradius 116.191
lwrist 49.003
lhand -23.6019 12.3714
lfingers 7.12502
lthumb 2.86181 42.3319
rfemur -85.8472 -41.04 13.0092
rtibia 111.014
rfoot 6.2833 -1.79793
rtoes 32.2544
lfemur -28.5079 15.162 -0.692219
ltibia 91.3776
lfoot 8.67788 -12.1316
ltoes 20.5719
177
root 4.54482 23.7897 -7.37991 0.359803 -0.845993 -5.42458
lowerback 16.7975 2.53413 8.12369
upperback 2.93985 5.21039 6.27302
thorax -6.12528 2.42615 1.00927
lowerneck -10.1723 -7.35358 -0.788993
upperneck 5.59202 -9.79446 0.846062
head 3.71124 -4.82476 -0.21204
rclavicle 7.55382e-015 -3.65764e-014
rhumerus 16.6877 -1.40155 3.7046
rradius 24.4325
rwrist 2.6806
rhand -35.2297 -32.3561
rfingers 7.12502
rthumb -8.36646 -62.1704
lclavicle 7.55382e-015 -3.65764e-014
lhumerus -12.0782 1.44991 14.4436
lradius 114.398
lwrist 47.99
lhand -22.5018 12.5662
lfingers 7.12502
lthumb 3.92418 42.5098
rfemur -84.5517 -40.8553 14.136
rtibia 113.086
rfoot 7.42073 -4.13169
rtoes 37.5467
lfemur -27.9366 12.2477 -2.70502
ltibia 87.801
lfoot 9.54733 -12.7727
ltoes 20.2717
178
root 4.5089 23.6285 -7.23581 0.305951 -0.776711 -5.25856
lowerback 15.9468 2.70478 7.87895
upperback 2.87752 5.28935 6.17852
thorax -5.73755 2.48432 1.0679
lowerneck -10.1888 -7.45622 -0.800903
upperneck 6.01433 -9.92591 0.711726
head 3.85793 -4.8922 -0.27508
rclavicle -4.57205e-014 -8.74653e-014
rhumerus 15.4297 -0.560822 5.16556
rradius 24.5072
rwrist 2.0305
rhand -35.1548 -32.4276
rfingers 7.12502
rthumb -8.2942 -62.2448
lclavicle -4.57205e-014 -8.74653e-014
lhumerus -13.0782 1.40318 13.232
lradius 112.416
lwrist 47.2089
lhand -21.5133 12.6406
lfingers 7.12502
lthumb 4.87875 42.5644
rfemur -82.5278 -40.4383 14.8544
rtibia 114.384
rfoot 7.97061 -6.27058
rtoes 41.5935
lfemur -27.2434 9.42149 -4.63866
ltibia 84.2549
lfoot 10.4755 -13.1428
ltoes 20.535
179
root 4.46977 23.4567 -7.08806 0.197678 -0.665973 -5.02876
lowerback 15.0996 2.87285 7.49379
upperback 2.83199 5.34688 6.07087
thorax -5.34522 2.53426 1.19724
lowerneck -10.188 -7.56103 -0.819041
upperneck 6.46334 -10.0654 0.645766
head 4.01615 -4.96036 -0.316186
rclavicle -5.28767e-014 -5.08889e-014
rhumerus 14.0536 0.282417 6.54532
rradius 24.6175
rwrist 1.54785
rhand -35.1424 -32.4891
rfingers 7.12502
rthumb -8.2822 -62.3067
lclavicle -5.28767e-014 -5.08889e-014
lhumerus -14.0369 1.25109 12.0265
lradius 110.262
lwrist 46.7071
lhand -20.7045 12.623
lfingers 7.12502
lthumb 5.65963 42.5275
rfemur -79.8186 -39.7707 15.151
rtibia 114.907
rfoot 8.00851 -7.89154
rtoes 44.2641
lfemur -26.4121 6.70957 -6.49106
ltibia 80.724
lfoot 11.3982 -13.154
ltoes 21.1862
180
root 4.42614 23.2742 -6.9363 0.0402498 -0.498658 -4.75142
lowerback 14.2453 3.03263 6.9696
upperback 2.80219 5.37934 5.95784
thorax -4.94484 2.57344 1.40546
lowerneck -10.1691 -7.66153 -0.84097
upperneck 6.92999 -10.2052 0.645809
head 4.18246 -5.02523 -0.335475
rclavicle 6.55989e-014 4.6118e-014
rhumerus 12.5585 1.0919 7.82283
rradius 24.7215
rwrist 1.37614
rhand -35.1988 -32.6454
rfingers 7.12502
rthumb -8.33664 -62.4609
lclavicle 6.55989e-014 4.6118e-014
lhumerus -14.9442 0.991371 10.8593
lradius 107.946
lwrist 46.4824
lhand -20.1276 12.5703
lfingers 7.12502
lthumb 6.21662 42.4591
rfemur -76.516 -38.8377 15.0775
rtibia 114.655
rfoot 7.73812 -8.79725
rtoes 45.572
lfemur -25.4457 4.12213 -8.25284
ltibia 77.1903
lfoot 12.2539 -12.7822
ltoes 21.9799
